<?xml version="1.0" standalone="no"?>
<!DOCTYPE svg PUBLIC "-//W3C//DTD SVG 20010904//EN"
 "http://www.w3.org/TR/2001/REC-SVG-20010904/DTD/svg10.dtd">
<svg version="1.0" xmlns="http://www.w3.org/2000/svg"
 width="372.000000pt" height="372.000000pt" viewBox="0 0 372.000000 372.000000"
 preserveAspectRatio="xMidYMid meet">
<metadata>
Created by potrace 1.14, written by Peter Selinger 2001-2017
</metadata>
<g transform="translate(0.000000,372.000000) scale(0.100000,-0.100000)"
fill="#000000" stroke="none">
<path d="M1601 3704 c-605 -87 -1130 -465 -1405 -1011 -79 -156 -130 -307
-167 -492 -24 -122 -34 -433 -18 -561 97 -770 641 -1389 1395 -1585 50 -13
108 -26 130 -29 21 -3 68 -10 104 -15 100 -14 356 -12 470 4 930 131 1620 926
1609 1855 -3 298 -56 531 -179 788 -273 570 -794 953 -1423 1046 -117 17 -397
17 -516 0z"/>
</g>
</svg>
